<svg width="80" height="80" viewBox="0 0 80 80" fill="none" xmlns="http://www.w3.org/2000/svg">
<g clip-path="url(#clip0_730_393)">
<path d="M74.8147 67.372C75.4254 66.4559 75.8325 65.2346 75.8325 64.0132V60.9598C75.8325 57.8045 73.3898 55.1582 70.2345 54.8529V46.5068H9.16584V54.9547C6.01063 55.26 3.56788 57.8045 3.56788 61.0615V64.115C3.56788 65.3363 3.975 66.4559 4.58569 67.4738C1.63404 69.204 -0.299805 72.3592 -0.299805 76.0234V79.6875H20.6671V76.0234C20.6671 72.3592 18.7333 69.204 15.7816 67.4738C16.3923 66.5577 16.7994 65.3363 16.7994 64.115V61.0615C16.7994 57.9063 14.3567 55.26 11.2015 54.9547V48.6442H38.6824V54.9547C35.5272 55.26 33.0844 57.8045 33.0844 61.0615V64.115C33.0844 65.3363 33.4915 66.4559 34.1022 67.4738C31.1506 69.204 29.2167 72.3592 29.2167 76.0234V79.6875H50.1837V76.0234C50.1837 72.3592 48.2498 69.204 45.2982 67.4738C45.9088 66.5577 46.316 65.3363 46.316 64.115V61.0615C46.316 57.9063 43.8732 55.26 40.718 54.9547V48.6442H68.1989V54.9547C65.0437 55.26 62.601 57.8045 62.601 61.0615V64.115C62.601 65.3363 63.0081 66.4559 63.6188 67.4738C60.6671 69.204 58.7333 72.3592 58.7333 76.0234V79.6875H79.7002V76.0234C79.7002 72.3592 77.7663 69.1022 74.8147 67.372ZM18.6315 75.9216V77.5501H1.73582V75.9216C1.73582 72.8682 3.4661 70.2218 6.01063 68.8987C7.02844 69.7129 8.35159 70.1201 9.67475 70.1201H10.6926C12.1175 70.1201 13.3389 69.7129 14.3567 68.8987C16.9012 70.2218 18.6315 72.8682 18.6315 75.9216ZM14.7638 61.0615V64.115C14.7638 65.031 14.4585 65.8453 13.9496 66.5577C13.3389 67.372 12.4228 67.8809 11.405 68.0844C11.2015 68.1862 10.9979 68.1862 10.6926 68.1862H9.67475C9.36941 68.1862 9.16584 68.1862 8.96228 68.0844C7.94447 67.8809 7.02844 67.372 6.41775 66.5577C5.90885 65.8453 5.6035 65.031 5.6035 64.115V61.0615C5.6035 58.8224 7.43556 56.9903 9.67475 56.9903H10.6926C12.9317 56.9903 14.7638 58.8224 14.7638 61.0615ZM48.148 75.9216V77.5501H31.2524V75.9216C31.2524 72.8682 32.9826 70.2218 35.5272 68.8987C36.545 69.7129 37.8681 70.1201 39.1913 70.1201H40.2091C41.634 70.1201 42.8554 69.7129 43.8732 68.8987C46.4177 70.2218 48.148 72.8682 48.148 75.9216ZM44.2803 61.0615V64.115C44.2803 65.031 43.975 65.8453 43.4661 66.5577C42.8554 67.372 41.9394 67.8809 40.9216 68.0844C40.718 68.1862 40.5144 68.1862 40.2091 68.1862H39.1913C38.8859 68.1862 38.6824 68.1862 38.4788 68.0844C37.461 67.8809 36.545 67.372 35.9343 66.5577C35.4254 65.8453 35.12 65.031 35.12 64.115V61.0615C35.12 58.8224 36.9521 56.9903 39.1913 56.9903H40.2091C42.4483 56.9903 44.2803 58.8224 44.2803 61.0615ZM64.6366 61.0615C64.6366 58.8224 66.4686 56.9903 68.7078 56.9903H69.7256C71.9648 56.9903 73.7969 58.8224 73.7969 61.0615V64.115C73.7969 65.031 73.4915 65.8453 72.9826 66.5577C72.3719 67.372 71.4559 67.8809 70.4381 68.0844C70.2345 68.1862 70.031 68.1862 69.7256 68.1862H68.7078C68.4025 68.1862 68.1989 68.1862 67.9954 68.0844C66.9776 67.8809 66.0615 67.372 65.4508 66.5577C64.9419 65.8453 64.6366 65.031 64.6366 64.115V61.0615ZM77.6646 77.5501H60.7689V75.9216C60.7689 72.8682 62.4992 70.2218 65.0437 68.8987C66.0615 69.7129 67.3847 70.1201 68.7078 70.1201H69.7256C71.1506 70.1201 72.3719 69.7129 73.3898 68.8987C75.9343 70.2218 77.6646 72.8682 77.6646 75.9216V77.5501Z" fill="#01305E"/>
<path d="M40.7182 40.8071H38.6826V47.6265H40.7182V40.8071Z" fill="#01305E"/>
<path d="M38.4789 21.5702C38.6825 21.5702 38.9878 21.672 39.1914 21.672H40.2092C40.5145 21.672 40.7181 21.672 40.9216 21.5702C41.9395 21.3667 42.8555 20.8578 43.4662 20.0435C43.9751 19.331 44.2804 18.5168 44.2804 17.6008V14.5473C44.2804 12.3081 42.4484 10.4761 40.2092 10.4761H39.1914C36.9522 10.4761 35.1201 12.3081 35.1201 14.5473V17.6008C35.1201 18.5168 35.4255 19.331 35.9344 20.0435C36.5451 20.756 37.4611 21.3667 38.4789 21.5702Z" fill="#B8884B"/>
<path d="M43.8733 22.3848C42.8555 23.199 41.5323 23.6061 40.2092 23.6061H39.1914C37.7664 23.6061 36.5451 23.199 35.5273 22.3848C32.9827 23.7079 31.2524 26.3542 31.2524 29.4077V31.0362H48.1481V29.4077C48.1481 26.3542 46.4178 23.7079 43.8733 22.3848Z" fill="#B8884B"/>
<path d="M39.7005 0.399902C28.5045 0.399902 19.3442 9.56021 19.3442 20.7561C19.3442 31.9521 28.5045 41.1124 39.7005 41.1124C50.8964 41.1124 60.0567 31.9521 60.0567 20.7561C60.0567 9.45842 50.8964 0.399902 39.7005 0.399902ZM50.1839 29.4075V33.0717H29.217V29.4075C29.217 25.7434 31.1509 22.5882 34.1025 20.8579C33.4918 19.9419 33.0847 18.7205 33.0847 17.4991V14.4457C33.0847 11.2905 35.5274 8.64418 38.6827 8.33883H40.7183C43.8735 8.64418 46.3162 11.1887 46.3162 14.4457V17.4991C46.3162 18.7205 45.9091 19.8401 45.2984 20.8579C48.2501 22.5882 50.1839 25.7434 50.1839 29.4075Z" fill="#B8884B"/>
</g>
<defs>
<clipPath id="clip0_730_393">
<rect width="80" height="80" fill="white"/>
</clipPath>
</defs>
</svg>
